<svg class="icon" viewBox="0 0 1024 1024" xmlns="http://www.w3.org/2000/svg" width="200" height="200"><defs><style/></defs><path d="M918.71 181.312H105.29c-54.506 0-98.687 44.181-98.687 98.688v643.52c0 54.528 44.181 98.688 98.688 98.688h813.418c54.507 0 98.688-44.16 98.688-98.688V280c0-54.507-44.181-98.688-98.688-98.688zm-13.718 728.512H119.008V293.717h785.984v616.107z"/><path d="M398.197 288.47V112.426h222.827v176.042h112.448V98.71c0-54.506-44.203-98.688-98.71-98.688L384.48 0c-54.485 0-98.667 44.203-98.667 98.71v189.78h112.384zM286.987 531.179h447.658v112.405H286.987V531.179zM566.304 797.312V404.779v392.533z"/><path d="M454.624 391.104h112.384v392.512H454.624V391.104z"/></svg>
