<svg class="icon" viewBox="0 0 1024 1024" xmlns="http://www.w3.org/2000/svg" width="200" height="200"><defs><style/></defs><path d="M475.315 731.498h73.126a36.563 36.563 0 0 1 0 73.126h-73.126a36.563 36.563 0 0 1 0-73.126zm-219.376 0h73.126a36.563 36.563 0 0 1 0 73.126h-73.126a36.563 36.563 0 0 1 0-73.126zm438.753-221.814h73.125a36.563 36.563 0 0 1 0 73.126h-73.125a36.563 36.563 0 0 1 0-73.126zm-219.377 0h73.126a36.563 36.563 0 0 1 0 73.126h-73.126a36.563 36.563 0 0 1 0-73.126zm-219.376 0h73.126a36.563 36.563 0 0 1 0 73.126h-73.126a36.563 36.563 0 0 1 0-73.126zm685.43 429.49H82.387V365.871h858.98zM82.387 155.757h136.988v22.913a40.95 40.95 0 0 0 82.388 0v-22.913h420.228v22.913a40.95 40.95 0 0 0 82.388 0v-22.913h136.988v127.726H82.388zm858.98-82.388H804.38V41.194a40.95 40.95 0 0 0-82.388 0v32.175H301.764V41.194a40.95 40.95 0 0 0-82.388 0v32.175H82.388A82.388 82.388 0 0 0 0 155.757v785.855A82.388 82.388 0 0 0 82.388 1024h858.98a82.388 82.388 0 0 0 82.388-82.388V155.757a82.388 82.388 0 0 0-82.388-82.388z"/></svg>