<svg class="icon" viewBox="0 0 1024 1024" xmlns="http://www.w3.org/2000/svg" width="200" height="200"><defs><style/></defs><path d="M512 457.032a55.033 55.033 0 1 0 55.033 55.033A55.033 55.033 0 0 0 512 457.032zm220.132 0a55.033 55.033 0 1 0 54.607 55.033 55.033 55.033 0 0 0-55.033-55.033zm-439.838 0a55.033 55.033 0 1 0 54.607 55.033 55.033 55.033 0 0 0-55.033-55.033z"/><path d="M917.709 637.062a405.709 405.709 0 0 1-93.855 127.984 442.824 442.824 0 0 1-141.209 88.309 475.246 475.246 0 0 1-324.226 7.252 35.835 35.835 0 0 0-29.436 2.987l-115.612 66.125-18.344-154.86a35.835 35.835 0 0 0-10.239-20.905A389.924 389.924 0 0 1 69.603 479.216a378.832 378.832 0 0 1 34.129-157.847 405.709 405.709 0 0 1 93.854-127.984 442.824 442.824 0 0 1 143.769-89.162 474.393 474.393 0 0 1 343.85 0 441.117 441.117 0 0 1 138.649 87.882 406.135 406.135 0 0 1 93.855 127.984 380.112 380.112 0 0 1 0 315.267zm63.565-345.13a476.1 476.1 0 0 0-110.493-152.3A511.935 511.935 0 0 0 710.375 37.245a546.917 546.917 0 0 0-396.75 0 511.935 511.935 0 0 0-162.54 102.387 478.233 478.233 0 0 0-108.359 152.3A451.783 451.783 0 0 0 .065 479.217a461.168 461.168 0 0 0 127.984 316.12l23.037 196.668A36.262 36.262 0 0 0 186.92 1024a36.262 36.262 0 0 0 17.918-4.693L353.3 933.985a547.344 547.344 0 0 0 358.355-13.652 511.935 511.935 0 0 0 162.54-102.387 477.806 477.806 0 0 0 107.079-151.02 453.916 453.916 0 0 0 0-374.993z"/></svg>