<svg class="icon" viewBox="0 0 1024 1024" xmlns="http://www.w3.org/2000/svg" width="200" height="200"><defs><style/></defs><path d="M823.04 823.04a439.893 439.893 0 1 1-481.707-716.373A439.893 439.893 0 0 1 823.04 823.04zM512 0a512 512 0 1 0 512 512A512 512 0 0 0 512 0zm205.227 306.347a35.84 35.84 0 0 0-50.774 0L512 460.8 357.547 306.347a35.84 35.84 0 0 0-51.2 50.773L461.227 512 306.773 666.88a35.84 35.84 0 1 0 51.2 50.773L512 563.2l154.453 154.88a35.84 35.84 0 1 0 51.2-50.773L562.773 512l154.454-154.88a35.84 35.84 0 0 0 0-50.773z"/></svg>