<svg class="icon" viewBox="0 0 1024 1024" xmlns="http://www.w3.org/2000/svg" width="200" height="200"><defs><style/></defs><path d="M823.04 823.04a439.893 439.893 0 1 1-481.707-716.373A439.893 439.893 0 0 1 823.04 823.04zM512 0a512 512 0 1 0 512 512A512 512 0 0 0 512 0zm209.493 305.493l-327.68 328.534-85.333-149.334a35.84 35.84 0 0 0-62.293 35.84l108.8 190.294a36.267 36.267 0 0 0 31.146 18.346 35.84 35.84 0 0 0 17.494-3.84 37.547 37.547 0 0 0 8.533-6.826l360.107-361.814a35.84 35.84 0 0 0-50.774-51.2z"/></svg>