<svg xmlns="http://www.w3.org/2000/svg" viewBox="0 0 18.027 18.027"><g><path d="M13.03 16.634l.729.887H8.37v-.887zM16.668 13.694v-8.74H8.869V3.599h8.479a.68.68 0 0 1 .679.679v10.097a.68.68 0 0 1-.679.679h-4.815v1.293H8.871v-2.65h7.797v-.003zM6.813.348H1.01C.453.348 0 .801 0 1.358V16.67c0 .558.453 1.01 1.01 1.01h5.803a1.01 1.01 0 0 0 1.01-1.01V1.358c0-.557-.454-1.01-1.01-1.01zm0 16.322H1.01V1.358h5.803V16.67z"/><path d="M1.597 2.982h4.627v1.606H1.597zM1.598 6.211h4.627v1.606H1.598zM1.598 9.64h4.626v1.606H1.598z"/></g></svg>
