<svg class="icon" viewBox="0 0 1024 1024" xmlns="http://www.w3.org/2000/svg" width="200" height="200"><defs><style/></defs><path d="M367.905 776.215a40.892 40.892 0 0 1-34.563-18.499l-179.145-285.27a40.892 40.892 0 1 1 68.64-44.785l128.517 205.432 52.088-200.564a40.892 40.892 0 0 1 21.906-26.775l207.867-100.282a40.892 40.892 0 0 1 53.062 15.578l104.177 169.409L942.338 29.452a40.892 40.892 0 0 1 77.89 25.8l-180.12 544.252a40.892 40.892 0 0 1-73.994 8.762L633.215 395.531l-155.291 75.942-70.587 273.586a40.892 40.892 0 0 1-33.103 30.182zM981.77 1022.54H41.257A40.892 40.892 0 0 1 .365 982.62V41.135a40.892 40.892 0 1 1 82.27 0V941.73H981.77a40.892 40.892 0 1 1 0 82.271z"/></svg>