<svg class="icon" viewBox="0 0 1030 1024" xmlns="http://www.w3.org/2000/svg" width="201.172" height="200"><defs><style/></defs><path d="M734.577 366.309a41.136 41.136 0 0 0-41.137 41.136v382.96a41.136 41.136 0 1 0 82.763 0v-382.96a41.136 41.136 0 0 0-41.626-41.136zm-444.664 0a41.136 41.136 0 0 0-41.136 41.136v382.96a41.136 41.136 0 1 0 82.762 0v-382.96a41.136 41.136 0 0 0-40.647-41.136zm223.311 0a41.136 41.136 0 0 0-41.136 41.136v382.96a41.136 41.136 0 1 0 82.762 0v-382.96a41.136 41.136 0 0 0-40.157-41.136zm368.268 576.888H158.18V228.698h723.313v714.499zM334.477 81.293H695.4v65.622H334.477zm685.605 77.865a43.095 43.095 0 0 0-31.831-12.243H776.692V80.803A80.803 80.803 0 0 0 695.89 0H334.477a80.803 80.803 0 0 0-80.803 80.803v66.112H41.136a41.136 41.136 0 1 0 0 82.273h36.24v714.009A80.803 80.803 0 0 0 158.178 1024h723.313a80.803 80.803 0 0 0 80.804-80.803V228.698h23.506a42.116 42.116 0 0 0 42.605-41.136 40.157 40.157 0 0 0-9.794-28.893zM121.94 1008.33l-4.897-4.897zm10.774 6.366l-4.898-4.897z"/></svg>