<?xml version="1.0" standalone="no"?><!DOCTYPE svg PUBLIC "-//W3C//DTD SVG 1.1//EN" "http://www.w3.org/Graphics/SVG/1.1/DTD/svg11.dtd"><svg t="1605495564607" class="icon" viewBox="0 0 1024 1024" version="1.1" xmlns="http://www.w3.org/2000/svg" p-id="370188" xmlns:xlink="http://www.w3.org/1999/xlink" width="200" height="200"><defs><style type="text/css"></style></defs><path d="M117.459 119.627L225.882 11.204a36.201 36.201 0 0 1 51.14 0l2.108 2.108a36.02 36.02 0 0 1 0 50.96L170.707 172.874l-51.08 50.96-2.168 2.108a36.201 36.201 0 0 1-51.08 0l-55.356-55.236a36.02 36.02 0 0 1 0-50.96l2.169-2.107a36.201 36.201 0 0 1 51.08 0l2.107 2.108a36.322 36.322 0 0 0 51.08-0.12zM368.64 850.101v-3.434c0-23.491 20.119-42.586 44.815-42.586h565.128c24.696 0 44.815 19.215 44.815 42.586v3.434c0 23.491-20.18 42.586-44.815 42.586H413.455c-24.696 0.18-44.875-19.095-44.875-42.586z m0-357.015v-3.373c0-23.492 20.119-42.586 44.815-42.586h565.128c24.696 0 44.815 19.275 44.815 42.586v3.433c0 23.492-20.18 42.587-44.815 42.587H413.455c-24.696 0.18-44.875-19.095-44.875-42.587z m44.815-403.034h565.128c24.696 0 44.815 19.275 44.815 42.586v3.434c0 23.491-20.18 42.586-44.815 42.586H413.455c-24.696 0-44.875-19.215-44.875-42.586v-3.434c0-23.492 20.179-42.586 44.875-42.586zM158.36 525.734v-78.668H79.51v78.668h78.908zM0.723 566.814V406.167a37.948 37.948 0 0 1 37.828-37.828h160.707a37.948 37.948 0 0 1 37.828 37.828v160.587a37.948 37.948 0 0 1-37.828 37.828H38.551A37.948 37.948 0 0 1 0.723 566.754z m0 362.195V768.422a37.948 37.948 0 0 1 37.828-37.828h160.707a37.948 37.948 0 0 1 37.828 37.828v160.587a37.948 37.948 0 0 1-37.828 37.828H38.551A37.948 37.948 0 0 1 0.723 929.009z m78.667-40.9h79.029v-78.667H79.51v78.667z" fill="#707070" p-id="370189"></path></svg>