<svg class="icon" viewBox="0 0 1026 1024" xmlns="http://www.w3.org/2000/svg" width="200.391" height="200"><defs><style/></defs><path d="M403.222 530.09l318.871-318.384 90.689 90.688-318.385 318.384-157.485 66.31zM850.812 82.5l90.688 90.688-70.697 70.698-90.689-90.689zM265.726 807.03L536.33 692.94a37.543 37.543 0 0 0 11.701-7.801l453.93-453.93a82.4 82.4 0 0 0 0-116.529l-92.64-90.688a82.4 82.4 0 0 0-116.529 0L341.3 478.408a37.055 37.055 0 0 0-7.801 11.701l-116.53 268.652a36.568 36.568 0 0 0 48.757 48.757zm717.706 135.058H40.956a40.956 40.956 0 1 0 0 81.912h941.988a40.956 40.956 0 1 0 0-82.4z"/></svg>