<svg class="icon" viewBox="0 0 1088 1024" xmlns="http://www.w3.org/2000/svg" width="212.5" height="200"><defs><style/></defs><path d="M469.056 499.2l60.672-152.32L590.4 499.2H469.056zm119.616-300.352v-.256H470.784L244.16 780.032h113.216l63.808-160.32H638.4l63.936 160.576h113.152L588.8 198.848h-.192z"/><path d="M522.24 963.776a451.84 451.84 0 1 1 0-903.616 451.84 451.84 0 0 1 0 903.68m0-963.904C239.936 0 10.24 229.76 10.24 512c0 282.432 229.696 512 512 512s512-229.568 512-512c0-282.24-229.696-512-512-512"/></svg>