<svg class="icon" viewBox="0 0 1024 1024" xmlns="http://www.w3.org/2000/svg" width="200" height="200"><defs><style/></defs><path d="M510.672.082C286.367-4.206 72.239 159.367 17.329 377.336-37.963 578.41 42.287 808.795 213.732 928.531c166.709 121.399 407.716 128.823 578.777 11.903 167.605-109.561 261.23-321.898 222.961-519.517C980.08 219.331 814.78 47.246 612.809 10.065 579.211 3.345 544.974.082 510.672.082zm0 90.49c197.939-4.481 380.774 155.701 409.38 350.759 19.647 113.271-11.775 233.008-80.059 324.906C645.894 571.178 451.731 376.12 257.632 181.124c71.547-56.508 161.333-91.578 253.038-90.554zM185.317 253.441A5230753.106 5230753.106 0 0 1 769.726 840.6c-146.614 125.305-382.374 121.337-525.916-6.848C77.933 695.201 45.551 421.044 185.318 253.439z"/></svg>