<svg class="icon" viewBox="0 0 1024 1024" xmlns="http://www.w3.org/2000/svg" width="200" height="200"><defs><style/></defs><path d="M512 0C229.248 0 0 229.248 0 512s229.248 512 512 512 512-229.248 512-512S794.752 0 512 0zm0 928C282.624 928 96 741.312 96 512 96 282.656 282.624 96 512 96s416 186.656 416 416c0 229.312-186.624 416-416 416z"/><path d="M721.952 352.352a47.296 47.296 0 0 0-35.936 13.76L464 588.192 337.952 462.048a47.712 47.712 0 0 0-35.872-13.728c-11.616.48-23.136 4.8-32.032 13.728a47.776 47.776 0 0 0-13.664 32.064c-.512 12.864 3.84 25.952 13.664 35.84l159.968 160a47.872 47.872 0 0 0 67.84 0l256-256c9.888-9.888 14.208-22.944 13.728-35.84a47.36 47.36 0 0 0-13.728-32.032 47.232 47.232 0 0 0-31.904-13.728z"/></svg>