<svg class="icon" viewBox="0 0 1024 1024" xmlns="http://www.w3.org/2000/svg" width="200" height="200"><defs><style/></defs><path d="M512.3 947.2c-82.9 0-162-25.7-228.8-74.3-10.3-7.5-12.5-21.9-5.1-32.1 7.5-10.3 21.9-12.5 32.1-5.1 58.9 42.8 128.6 65.5 201.7 65.5 73 0 142.8-22.6 201.6-65.4 10.3-7.5 24.7-5.2 32.1 5.1s5.2 24.7-5.1 32.1c-66.6 48.5-145.7 74.2-228.5 74.2zM877.5 608c-.6 0-1.1 0-1.7-.1-12.7-.9-22.2-11.9-21.3-24.6.6-8.4.9-16.9.9-25.3 0-132.5-77.5-254.5-197.6-310.8-11.5-5.4-16.4-19.1-11.1-30.6 5.4-11.5 19.1-16.4 30.6-11.1 66 31 121.9 79.7 161.6 141.1 40.8 63 62.4 136.1 62.4 211.4 0 9.5-.3 19.2-1 28.6-.8 12.2-10.9 21.4-22.8 21.4zm-730.3 2c-11.9 0-22-9.2-22.9-21.2-.8-10.2-1.2-20.5-1.2-30.8 0-75.4 21.6-148.5 62.4-211.4 39.7-61.3 95.6-110.1 161.6-141.1 11.5-5.4 25.2-.4 30.6 11.1 5.4 11.5.4 25.2-11.1 30.6C246.6 303.5 169 425.5 169 558c0 9 .4 18.2 1.1 27.2 1 12.7-8.5 23.7-21.1 24.7-.6.1-1.2.1-1.8.1zm361.5-303.7c-62.9 0-114-51.2-114-114s51.2-114 114-114 114 51.2 114 114-51.2 114-114 114zm0-182.1c-37.5 0-68 30.5-68 68s30.5 68 68 68 68-30.5 68-68-30.5-68-68-68zM193.2 850.3c-63.1 0-114.5-51.3-114.5-114.5S130 621.3 193.2 621.3s114.5 51.3 114.5 114.5-51.4 114.5-114.5 114.5zm0-182.9c-37.7 0-68.5 30.7-68.5 68.5s30.7 68.5 68.5 68.5 68.5-30.7 68.5-68.5-30.7-68.5-68.5-68.5zm637.2 182.9C767.3 850.3 716 799 716 735.9s51.3-114.4 114.4-114.4 114.4 51.3 114.4 114.4-51.3 114.4-114.4 114.4zm0-182.8c-37.7 0-68.4 30.7-68.4 68.4s30.7 68.4 68.4 68.4 68.4-30.7 68.4-68.4-30.6-68.4-68.4-68.4z"/></svg>