<?xml version="1.0" standalone="no"?><!DOCTYPE svg PUBLIC "-//W3C//DTD SVG 1.1//EN" "http://www.w3.org/Graphics/SVG/1.1/DTD/svg11.dtd"><svg t="1588006441012" class="icon" viewBox="0 0 1024 1024" version="1.1" xmlns="http://www.w3.org/2000/svg" p-id="2736" xmlns:xlink="http://www.w3.org/1999/xlink" width="200" height="200"><defs><style type="text/css"></style></defs><path d="M651.505 381.604c13.458-13.458 35.269-13.458 48.722-0.005 13.453 13.453 13.453 35.264 0.005 48.712L496.319 635.368c-13.453 13.453-35.264 13.453-48.725-0.009L322.951 509.491c-13.453-13.453-13.453-35.264 0-48.716 13.453-13.453 35.264-13.453 48.727 0.01l98.537 103.254 181.29-182.435zM522.998 782.416l152.337 92.901L518.234 960l2.9-54.853c-1.993 0.07-1.993 0.07-4.069 0.214-2.476 0.172-3.629 0.232-5.063 0.232-217.556 0-394.591-175.949-394.591-392.166a388.49 388.49 0 0 1 114.94-276.746c12.013-11.958 31.422-11.985 43.466-0.062a30.47 30.47 0 0 1 9.052 21.582 30.435 30.435 0 0 1-8.93 21.627c-62.57 62.514-97.06 145.49-97.06 233.594 0 182.482 149.476 331.042 333.124 331.042 1.383-0.038 1.383-0.038 2.846-0.191 0.928-0.113 0.928-0.113 1.891-0.243a89.206 89.206 0 0 1 2.372-0.298l3.886-61.316z m383.591-269.057a388.49 388.49 0 0 1-114.827 276.629 30.673 30.673 0 0 1-21.798 8.965 30.458 30.458 0 0 1-28.435-18.737 30.46 30.46 0 0 1 6.705-33.379 327.968 327.968 0 0 0 96.887-233.417c0-179.849-145.39-326.973-323.648-333.184l-3.334 61.394-153.459-91.109L520.746 64l0.373 57.629c213.654 4.815 385.47 178.876 385.47 391.73z" fill="#1afa29" p-id="2737"></path></svg>
