<?xml version="1.0" standalone="no"?><!DOCTYPE svg PUBLIC "-//W3C//DTD SVG 1.1//EN" "http://www.w3.org/Graphics/SVG/1.1/DTD/svg11.dtd"><svg t="1588006481042" class="icon" viewBox="0 0 1024 1024" version="1.1" xmlns="http://www.w3.org/2000/svg" p-id="3294" xmlns:xlink="http://www.w3.org/1999/xlink" width="200" height="200"><defs><style type="text/css"></style></defs><path d="M400.724055 712.787833A311.532081 311.532081 0 1 1 712.256136 1024a311.340133 311.340133 0 0 1-311.532081-311.212167z m56.624747 0a254.843352 254.843352 0 1 0 254.907334-254.523438 254.715386 254.715386 0 0 0-254.907334 254.459455zM383.896588 1012.291154a514.613376 514.613376 0 0 1-324.584565-228.162539l-8.957587 33.526969a25.593106 25.593106 0 0 1-24.697347 19.194829 26.232934 26.232934 0 0 1-6.398277-0.895758 25.593106 25.593106 0 0 1-15.483829-11.900795 25.081244 25.081244 0 0 1-2.623293-19.194829l28.152416-105.059699a4.222862 4.222862 0 0 0 0-0.831776v-0.767794a15.419846 15.419846 0 0 1 0.383897-1.535586 25.593106 25.593106 0 0 1 24.697347-19.194829 23.993537 23.993537 0 0 1 6.398276 0.895758l105.0597 28.152417a25.593106 25.593106 0 0 1 18.107122 31.351555 25.593106 25.593106 0 0 1-31.351554 18.107122l-37.173987-9.981311A441.481076 441.481076 0 0 0 383.896588 942.29401v69.997144z m303.790166-210.567278a36.34221 36.34221 0 0 1-36.34221-36.342211 36.854072 36.854072 0 0 1 1.279655-10.109276 36.214245 36.214245 0 0 1-1.471603-10.109277V601.073926a36.278228 36.278228 0 1 1 72.620438 0v127.965529H831.77594a36.278228 36.278228 0 1 1 0 72.620438zM68.013679 512.137883H0a511.862117 511.862117 0 0 1 945.601279-271.990733l9.021569-33.526968a25.593106 25.593106 0 0 1 49.394695 13.308415l-28.152417 105.059699a15.867726 15.867726 0 0 1-0.447879 1.535587l-0.319914 1.535586a25.593106 25.593106 0 0 1-31.351555 18.107122l-105.123682-28.152416a25.593106 25.593106 0 0 1 13.308415-49.458677l37.173986 9.981311A443.720473 443.720473 0 0 0 68.077662 512.137883z m183.950448-51.570108a24.313451 24.313451 0 1 1 0-48.626902h148.503997a24.313451 24.313451 0 0 1 0 48.626902z m0-140.762083a24.313451 24.313451 0 1 1 0-48.626901h275.125888a24.313451 24.313451 0 1 1 0 48.626901z" fill="#FF8000" p-id="3295"></path></svg>
