<?xml version="1.0" standalone="no"?><!DOCTYPE svg PUBLIC "-//W3C//DTD SVG 1.1//EN" "http://www.w3.org/Graphics/SVG/1.1/DTD/svg11.dtd"><svg t="1581929940734" class="icon" viewBox="0 0 1024 1024" version="1.1" xmlns="http://www.w3.org/2000/svg" p-id="25695" xmlns:xlink="http://www.w3.org/1999/xlink" width="200" height="200"><defs><style type="text/css"></style></defs><path d="M512 512m-512 0a512 512 0 1 0 1024 0 512 512 0 1 0-1024 0Z" fill="#DD4B39" p-id="25696"></path><path d="M488.789333 651.242667a82.048 82.048 0 0 1-116.053333-116.053334l58.026667-58.005333-23.189334-23.189333L349.546667 512c-44.672 44.672-44.672 117.76 0 162.453333a115.2 115.2 0 0 0 162.453333 0l58.026667-58.026666-23.210667-23.189334-58.026667 58.026667z m185.642667-301.696a115.2 115.2 0 0 0-162.453333 0l-58.005334 58.026666 23.210667 23.189334 58.026667-58.026667a82.048 82.048 0 0 1 116.053333 116.053333l-58.026667 58.026667 23.189334 23.189333L674.453333 512c44.672-44.672 44.672-117.76 0-162.453333zM446.378667 298.666667v66.922666h-33.493334V298.666667h33.493334z m-80.789334 147.690666H298.666667v-33.450666h66.922666v33.450666z m13.866667-43.264l-47.338667-47.317333 23.68-23.658667 47.296 47.317334-23.658666 23.68zM725.333333 611.093333h-66.922666v-33.450666H725.333333v33.450666z m-114.24 47.317334V725.333333h-33.450666v-66.922666h33.450666z m33.472-37.504l47.317334 47.317333-23.68 23.658667-47.296-47.317334 23.658666-23.68z" fill="#ffffff" p-id="25697"></path></svg>
