<svg class="icon" viewBox="0 0 1024 1024" xmlns="http://www.w3.org/2000/svg" width="200" height="200"><defs><style/></defs><path d="M512 928.012c229.731 0 416.012-186.249 416.012-416.012 0-229.731-186.249-416.012-416.012-416.012C282.269 95.988 95.988 282.237 95.988 512c0 229.731 186.249 416.012 416.012 416.012zm0 95.988C229.22 1024 0 794.749 0 512 0 229.22 229.22 0 512 0c282.749 0 512 229.22 512 512 0 282.749-229.251 512-512 512zm-64.056-384.08h127.984v127.984H447.944V639.92zm21.341-383.952h85.302l21.341 344.789H447.944l21.341-344.789z"/></svg>