<svg class="icon" viewBox="0 0 1026 1024" xmlns="http://www.w3.org/2000/svg" width="200.391" height="200"><defs><style/></defs><path d="M983.717 313.085a511.939 511.939 0 1 0 40.239 198.786 509.174 509.174 0 0 0-40.239-198.786zM435.943 966.472C258.3 937.394 87.825 766.816 58.695 589.225A461.615 461.615 0 0 1 590.446 57.423c177.54 28.975 348.17 199.605 377.196 377.094A461.666 461.666 0 0 1 435.84 966.472z"/><path d="M364.527 639.292a27.593 27.593 0 0 1-19.453-47.098l195.97-196.277a27.593 27.593 0 1 1 38.958 39.01l-195.97 196.43a27.798 27.798 0 0 1-19.505 7.935zm244.758-245.116a27.593 27.593 0 0 1-19.453-47.098l48.992-49.095a27.711 27.711 0 0 1 39.112 39.265l-48.992 48.993a27.542 27.542 0 0 1-19.659 7.935zm147.183 343.255H266.286a27.542 27.542 0 1 1 0-55.085h489.875a27.542 27.542 0 0 1 0 55.085z"/></svg>