<?xml version="1.0" standalone="no"?><!DOCTYPE svg PUBLIC "-//W3C//DTD SVG 1.1//EN" "http://www.w3.org/Graphics/SVG/1.1/DTD/svg11.dtd"><svg t="1581931116283" class="icon" viewBox="0 0 1024 1024" version="1.1" xmlns="http://www.w3.org/2000/svg" p-id="46316" xmlns:xlink="http://www.w3.org/1999/xlink" width="200" height="200"><defs><style type="text/css"></style></defs><path d="M512 1024C230.4 1024 0 793.6 0 512S230.4 0 512 0s512 230.4 512 512-230.4 512-512 512z m170.666667-665.6c4.266667-46.933333-12.8-93.866667-42.666667-128-34.133333-38.4-81.066667-59.733333-128-59.733333s-89.6 21.333333-119.466667 55.466666C358.4 260.266667 341.333333 307.2 341.333333 358.4c0 21.333333 17.066667 38.4 34.133334 38.4s34.133333-17.066667 34.133333-38.4c0-59.733333 46.933333-110.933333 102.4-110.933333 29.866667 0 55.466667 12.8 76.8 34.133333 17.066667 21.333333 25.6 46.933333 25.6 72.533333 0 21.333333 0 42.666667-64 110.933334-38.4 42.666667-72.533333 85.333333-76.8 136.533333 0 21.333333 12.8 38.4 29.866667 42.666667h4.266666c17.066667 0 34.133333-12.8 34.133334-34.133334 4.266667-25.6 25.6-51.2 59.733333-89.6 64-76.8 76.8-115.2 81.066667-162.133333zM512 810.666667c25.6 0 42.666667-17.066667 42.666667-42.666667s-17.066667-42.666667-42.666667-42.666667-42.666667 17.066667-42.666667 42.666667 17.066667 42.666667 42.666667 42.666667z" p-id="46317" fill="#4B94C0"></path></svg>
