<?xml version="1.0" standalone="no"?><!DOCTYPE svg PUBLIC "-//W3C//DTD SVG 1.1//EN" "http://www.w3.org/Graphics/SVG/1.1/DTD/svg11.dtd"><svg t="1581932591103" class="icon" viewBox="0 0 1024 1024" version="1.1" xmlns="http://www.w3.org/2000/svg" p-id="53303" xmlns:xlink="http://www.w3.org/1999/xlink" width="200" height="200"><defs><style type="text/css"></style></defs><path d="M512 1024C229.2224 1024 0 794.7776 0 512S229.2224 0 512 0s512 229.2224 512 512-229.2224 512-512 512z m183.9104-753.5104L512 454.4 328.192 270.4896a40.704 40.704 0 1 0-57.6512 57.6L454.4 512l-183.808 183.8592a40.6528 40.6528 0 1 0 57.5488 57.6L512 569.6l183.9104 183.8592a40.6528 40.6528 0 1 0 57.5488-57.6512L569.6512 512l183.8592-183.9104a40.704 40.704 0 1 0-57.6-57.6z" fill="#F39C12" p-id="53304"></path></svg>
