<svg class="icon" viewBox="0 0 1024 1024" xmlns="http://www.w3.org/2000/svg" width="200" height="200"><defs><style/></defs><path d="M512 85.333c-234.667 0-426.667 192-426.667 426.667s192 426.667 426.667 426.667c234.667 0 426.667-192 426.667-426.667S746.667 85.333 512 85.333zm42.667 725.334h-85.334v-85.334h85.334v85.334zm89.6-328.534l-38.4 38.4C571.733 550.4 554.667 576 554.667 640h-85.334v-21.333c0-46.934 17.067-89.6 51.2-119.467l51.2-55.467c17.067-12.8 25.6-34.133 25.6-59.733 0-46.933-38.4-85.333-85.333-85.333s-85.333 38.4-85.333 85.333h-85.334c0-93.867 76.8-170.667 170.667-170.667S682.667 290.133 682.667 384c0 38.4-17.067 72.533-38.4 98.133z"/></svg>