<svg id="图层_1" data-name="图层 1" xmlns="http://www.w3.org/2000/svg" viewBox="0 0 35 35"><defs><style>.cls-1{fill:none;}.cls-2{fill:#999;}</style></defs><title>icon_erweima</title><polygon class="cls-1" points="13.47 2.69 2.69 2.69 2.69 5.74 5 8.08 5 5 10 5 10 10 6.89 10 10.31 13.47 13.47 13.47 13.47 2.69"/><path class="cls-1" d="M21.54,13.46H32.31V2.7H21.54ZM24.23,5h5.38v5.45H24.23Z"/><polygon class="cls-2" points="22 19 19.28 19 19.28 22.58 22 25.34 22 19"/><polygon class="cls-2" points="16.15 18.64 15.4 18.64 16.15 19.4 16.15 18.64"/><rect class="cls-2" x="26.92" y="18.64" width="8.08" height="2.73"/><rect class="cls-2" x="32.3" y="24.09" width="2.7" height="2.73"/><rect class="cls-2" x="24.23" y="5" width="5.38" height="5.45"/><polygon class="cls-2" points="29.61 29.61 29.61 26.91 26.91 26.91 26.91 24.22 24.23 24.22 24.23 24.23 24.23 27.6 26.21 29.61 29.61 29.61"/><polygon class="cls-2" points="32.3 32.3 28.86 32.3 31.52 35 35 35 35 29.62 32.3 29.62 32.3 32.3"/><polygon class="cls-2" points="2.69 2.69 13.47 2.69 13.47 13.47 10.31 13.47 12.95 16.15 16.15 16.15 16.15 0 0 0 0 3 2.69 5.74 2.69 2.69"/><path class="cls-2" d="M18.85,0V16.15H35V0ZM32.31,13.46H21.54V2.7H32.31Z"/><polygon class="cls-2" points="10 10 10 5 5 5 5 8.08 6.89 10 10 10"/></svg>
