<svg class="icon" viewBox="0 0 1024 1024" xmlns="http://www.w3.org/2000/svg" width="200" height="200"><defs><style/></defs><path d="M766 430.5H589c-17.673 0-32-14.327-32-32V252H325v260.5c0 16.569-13.431 30-30 30-16.569 0-30-13.431-30-30V224c0-17.673 14.327-32 32-32h312.71a30 30 0 0 1 20.014 7.652l186.29 166.83A30 30 0 0 1 826 388.831V801c0 17.673-14.327 32-32 32H559.09c-16.57 0-30-13.431-30-30 0-16.569 13.43-30 30-30H766V430.5zm-35.438-60L617 268.8v101.7h113.562zM495.983 671.574H229c-16.569 0-30-13.432-30-30 0-16.569 13.431-30 30-30h267.61l-107.36-107.36c-11.716-11.717-11.716-30.711 0-42.427 11.715-11.716 30.71-11.716 42.426 0l156.846 156.846c12.497 12.497 12.497 32.758 0 45.255L431.676 820.734c-11.716 11.716-30.711 11.716-42.427 0-11.715-11.716-11.715-30.71 0-42.426l106.734-106.734z"/></svg>