<svg class="icon" viewBox="0 0 1024 1024" xmlns="http://www.w3.org/2000/svg" width="200" height="200"><defs><style/></defs><path d="M473.173 220.587a35.84 35.84 0 1 0 35.84-35.84 35.84 35.84 0 0 0-35.84 35.84zm157.014 485.12h-85.334V355.413a35.84 35.84 0 0 0-35.84-35.84h-96a35.84 35.84 0 1 0 0 72.107h60.16v314.027H387.84a35.84 35.84 0 1 0 0 72.106h242.347a35.84 35.84 0 1 0 0-72.106zM823.04 823.04a439.893 439.893 0 1 1-481.707-716.373A439.893 439.893 0 0 1 823.04 823.04zM512 0a512 512 0 1 0 512 512A512 512 0 0 0 512 0z"/></svg>