<svg class="icon" viewBox="0 0 1024 1024" xmlns="http://www.w3.org/2000/svg" width="200" height="200"><defs><style/></defs><path d="M475.913 694.718V797.01a36.046 36.046 0 0 0 72.579 0V694.718a66.246 66.246 0 0 0 30.687-56.016 67.22 67.22 0 1 0-133.953 0 67.707 67.707 0 0 0 30.687 56.016zM821.27 519.361v425.241H203.623v-425.24zM391.644 104.35A283.494 283.494 0 0 1 511.96 78.046a292.262 292.262 0 0 1 118.366 25.33 314.669 314.669 0 0 1 97.42 70.142 333.178 333.178 0 0 1 67.22 105.214 340.972 340.972 0 0 1 24.843 129.083v33.61H203.136v-34.097a344.382 344.382 0 0 1 24.842-129.083 331.717 331.717 0 0 1 67.22-104.727 306.388 306.388 0 0 1 96.446-69.168zm476.387 146.13a410.628 410.628 0 0 0-82.807-129.569 384.811 384.811 0 0 0-124.212-88.653 367.276 367.276 0 0 0-301.03 0 384.324 384.324 0 0 0-122.75 87.679 409.166 409.166 0 0 0-81.345 129.57 420.37 420.37 0 0 0-30.688 158.308v535.813a77.45 77.45 0 0 0 75.501 79.398h622.518a77.45 77.45 0 0 0 75.5-79.398V407.815a417.447 417.447 0 0 0-30.2-158.309z"/></svg>