<svg class="icon" viewBox="0 0 1024 1024" xmlns="http://www.w3.org/2000/svg" width="200" height="200"><defs><style/></defs><path d="M823.04 823.04a440.32 440.32 0 0 1-716.373-140.373 440.32 440.32 0 0 1 234.666-576 440.32 440.32 0 0 1 576 234.666 439.467 439.467 0 0 1-94.293 482.134zM512 0a512 512 0 1 0 512 512A512 512 0 0 0 512 0z"/><path d="M701.44 404.907H534.613L652.8 287.147a35.84 35.84 0 1 0-50.773-50.774L512 328.107l-93.013-93.014a36.267 36.267 0 0 0-51.2 51.2L485.973 404.48H321.28a34.56 34.56 0 0 0-34.133 34.56v3.413a34.133 34.133 0 0 0 34.133 33.707h154.453v64H353.28a34.56 34.56 0 0 0-33.707 34.987v3.84a32.427 32.427 0 0 0 33.707 32.853h122.453v149.333a35.84 35.84 0 0 0 72.107 0V611.84h121.6a34.133 34.133 0 0 0 34.987-32.853v-3.84a35.84 35.84 0 0 0-34.987-34.987h-121.6v-62.293h153.6a34.133 34.133 0 0 0 34.987-33.28v-3.84a36.693 36.693 0 0 0-34.987-35.84z"/></svg>