<svg class="icon" viewBox="0 0 1024 1024" xmlns="http://www.w3.org/2000/svg" width="200" height="200"><defs><style/></defs><path d="M736 448c-159.04 0-288 128.96-288 288s128.96 288 288 288 288-128.96 288-288-128.96-288-288-288zm0 512c-123.52 0-224-100.48-224-224s100.48-224 224-224 224 100.48 224 224-100.48 224-224 224zm160-230.4L640 883.2V576l256 153.6zM534.272 1024H0v-64h464.704c20.16 24.384 43.648 45.76 69.568 64zM422.848 896H128V537.536C128 347.008 283.008 192 473.472 192c139.584 0 260.48 80.384 319.68 197.056C774.528 385.984 755.52 384 736 384c-6.464 0-12.8.64-19.2.96C663.744 307.2 574.528 256 473.472 256 318.272 256 192 382.272 192 537.536V832h128V512h64v320h13.632c6.4 22.336 14.848 43.712 25.216 64zM512 128h-64V0h64v128zm-290.624 74.944l-90.496-90.496L176.128 67.2l90.496 90.496-45.248 45.248zm466.752 0l-45.248-45.248L733.376 67.2l45.248 45.248-90.496 90.496z"/></svg>