<svg class="icon" viewBox="0 0 1292 1024" xmlns="http://www.w3.org/2000/svg" width="252.344" height="200"><defs><style/></defs><path d="M1192.334 0H99.919A99.918 99.918 0 0 0 0 100.236v695.29A99.918 99.918 0 0 0 99.919 895.76h1092.415a100.236 100.236 0 0 0 100.236-100.236V100.236A100.236 100.236 0 0 0 1192.334 0zm-122.83 299.754L724.248 575.006 533.32 371.35l-273.66 266.66a27.684 27.684 0 0 1-19.412 7.637 27.048 27.048 0 0 1-20.047-9.228 27.684 27.684 0 0 1 0-39.14l313.437-305.8 195.063 207.155 305.481-243.43a28.32 28.32 0 0 1 39.14 4.454 28.002 28.002 0 0 1-3.818 40.095zM303.255 964.177h686.06q25.776 0 25.776 25.775v8.273q0 25.775-25.775 25.775H303.255q-25.775 0-25.775-25.775v-8.273q0-25.775 25.775-25.775z"/><path d="M613.51 896.08h64.915v81.461H613.51z"/></svg>
