<svg class="icon" viewBox="0 0 1024 1024" xmlns="http://www.w3.org/2000/svg" width="200" height="200"><defs><style/></defs><path d="M878.933 85.333H145.067c-38.4 0-59.734 46.934-59.734 85.334v524.8c0 42.666 21.334 72.533 59.734 72.533h281.6v85.333H345.6c-8.533 0-4.267 17.067-4.267 25.6v51.2c0 12.8-4.266 8.534 4.267 8.534h328.533c8.534 0 4.267 4.266 4.267-4.267v-51.2c0-8.533 4.267-25.6-4.267-25.6h-76.8v-85.333h281.6c42.667 0 59.734-29.867 59.734-72.534V170.667c0-38.4-21.334-85.334-59.734-85.334zm-81.066 354.134C721.067 537.6 622.933 597.333 512 597.333S302.933 537.6 226.133 439.467c-4.266-8.534-4.266-21.334 0-25.6 76.8-98.134 174.934-162.134 285.867-162.134S721.067 311.467 797.867 409.6c4.266 8.533 4.266 21.333 0 29.867z"/><path d="M503.467 281.6c-76.8 4.267-136.534 64-140.8 140.8-4.267 89.6 68.266 166.4 157.866 157.867 72.534-4.267 136.534-64 140.8-140.8 4.267-89.6-68.266-162.134-157.866-157.867zm12.8 213.333C477.867 499.2 448 465.067 448 426.667c0-29.867 25.6-55.467 59.733-59.734C546.133 362.667 576 396.8 576 435.2c-4.267 29.867-29.867 55.467-59.733 59.733z"/></svg>