<svg class="icon" viewBox="0 0 1025 1024" xmlns="http://www.w3.org/2000/svg" width="200.195" height="200"><defs><style/></defs><path d="M998.271 0H25.73C12.007 0 0 12.007 0 25.729v780.435c0 13.722 12.007 25.729 25.729 25.729h430.526v78.901H241.849c-32.59 0-58.318 22.298-58.318 49.742v13.722c0 27.444 25.729 49.742 58.318 49.742h542.017c32.59 0 58.318-22.298 58.318-49.742v-13.722c0-27.444-25.728-49.742-58.318-49.742H569.461v-78.901h430.526c13.722 0 25.728-12.007 25.728-25.729V25.73C1024 12.007 1011.993 0 998.271 0z"/><path d="M452.824 660.369c-46.311-13.722-82.332-36.02-101.2-77.186-36.02-77.186-30.874-150.942 22.299-219.552 20.583-27.443 42.881-54.887 48.027-89.192 1.715-8.576 1.715-17.153 3.43-25.729 24.014 22.298 37.736 66.895 29.16 104.63 18.867-10.291 41.165-49.742 51.457-99.484 8.576-37.735 10.291-77.186 17.152-116.637 10.292 12.007 22.298 24.014 32.59 36.02 54.887 66.895 102.914 137.22 128.643 221.267 17.152 60.033 18.868 118.352-13.722 173.24-25.729 44.596-66.895 72.04-113.206 96.053 5.146-20.583 8.576-41.166 13.722-61.749 5.146-24.013-5.146-44.596-24.014-60.033-5.145-3.43-10.291-8.576-15.437-12.007-37.735-32.59-42.88-72.04-15.437-113.206 3.43-3.43 5.146-8.576 8.576-12.007-41.166 8.577-96.053 54.888-108.06 106.345-10.291 53.173 6.861 99.484 36.02 149.227z"/></svg>