<svg class="icon" viewBox="0 0 1024 1024" xmlns="http://www.w3.org/2000/svg" width="200" height="200"><defs><style/></defs><path d="M408.771 812.773a52.165 52.165 0 0 1-53.02-51.31V263.754a51.738 51.738 0 0 1 53.02-49.6 53.876 53.876 0 0 1 35.49 13.256L736.3 475.836a50.027 50.027 0 0 1 0 75.683L443.833 800.373a52.593 52.593 0 0 1-35.062 12.4zm-6.841-61.572zm17.958-462.22v445.972l262.11-221.49zm-17.53-14.965z"/><path d="M513.102 1024a513.102 513.102 0 0 1-363.02-873.983 510.109 510.109 0 0 1 162.482-109.89 513.102 513.102 0 0 1 561.42 109.89 513.102 513.102 0 0 1-162.91 833.79A507.543 507.543 0 0 1 513.101 1024zm0-959.5a448.109 448.109 0 0 0-175.31 860.3 451.102 451.102 0 0 0 348.481 0 446.398 446.398 0 0 0 142.386-96.206A447.681 447.681 0 0 0 513.102 64.5z"/></svg>