<svg class="icon" viewBox="0 0 1024 1024" xmlns="http://www.w3.org/2000/svg" width="200" height="200"><defs><style/></defs><path d="M989.867 128c-21.334 0-34.134 17.067-34.134 34.133v85.334C913.067 183.467 857.6 128 793.6 85.333 708.267 29.867 610.133 0 512 0 384 0 256 46.933 162.133 136.533 68.267 226.133 12.8 345.6 0 473.6 0 494.933 12.8 512 34.133 512H38.4c17.067 0 34.133-12.8 34.133-34.133 8.534-110.934 55.467-213.334 140.8-290.134C294.4 110.933 401.067 68.267 512 68.267c85.333 0 170.667 25.6 243.2 72.533 64 42.667 115.2 98.133 149.333 166.4H806.4c-21.333 0-34.133 17.067-34.133 34.133S785.067 384 802.133 384H985.6c21.333 0 38.4-17.067 38.4-34.133V162.133c0-17.066-17.067-34.133-34.133-34.133zm0 384c-21.334 0-38.4 12.8-38.4 34.133-8.534 110.934-59.734 213.334-140.8 290.134C729.6 913.067 622.933 955.733 512 955.733c-85.333 0-170.667-25.6-243.2-72.533-64-42.667-115.2-98.133-149.333-166.4H217.6c21.333 0 34.133-17.067 34.133-34.133S238.933 640 221.867 640H34.133C17.067 640 0 657.067 0 674.133V857.6C0 878.933 17.067 896 34.133 896s34.134-17.067 34.134-34.133v-85.334C110.933 840.533 166.4 896 230.4 938.667 315.733 994.133 413.867 1024 512 1024c128 0 256-46.933 349.867-136.533 93.866-89.6 153.6-209.067 162.133-337.067 0-21.333-12.8-38.4-34.133-38.4z"/></svg>