<svg class="icon" viewBox="0 0 1024 1024" xmlns="http://www.w3.org/2000/svg" width="200" height="200"><defs><style/></defs><path d="M669.056 823.51c-66.144 0-128.33-25.76-175.104-72.534-46.773-46.773-72.533-108.96-72.533-175.104 0-66.144 25.76-128.33 72.533-175.104 46.773-46.773 108.96-72.533 175.104-72.533 66.144 0 128.33 25.76 175.104 72.533 46.773 46.773 72.533 108.96 72.533 175.104 0 66.144-25.76 128.33-72.533 175.104-46.773 46.773-108.96 72.533-175.104 72.533zm0-426.998c-98.901 0-179.36 80.459-179.36 179.36s80.459 179.36 179.36 179.36 179.36-80.459 179.36-179.36c.01-98.89-80.459-179.36-179.36-179.36zm-611.653 58.76l338.197-1.667.337 68.267-338.197 1.666zm0 337.636L395.6 791.24l.337 68.266-338.197 1.667zm.165-676.119h913.237v68.267H57.568z"/><path d="M786.205 747.731l47.594-48.94 167.744 163.133-47.594 48.941z"/></svg>