<svg class="icon" viewBox="0 0 1024 1024" xmlns="http://www.w3.org/2000/svg" width="200" height="200"><defs><style/></defs><path d="M950.857 402.286H899.11a403.2 403.2 0 0 0-36.572-86.309l36.572-36.571a73.143 73.143 0 0 0 0-103.315L848.09 124.16a73.143 73.143 0 0 0-103.314 0l-36.571 36.571a393.691 393.691 0 0 0-86.492-35.657V73.143A73.143 73.143 0 0 0 548.571 0H475.43a73.143 73.143 0 0 0-73.143 73.143v51.931a393.691 393.691 0 0 0-86.309 35.657l-36.571-36.571a73.143 73.143 0 0 0-103.315 0l-51.931 51.749a73.143 73.143 0 0 0 0 103.314l36.571 36.571a403.2 403.2 0 0 0-36.571 86.309H73.143A73.143 73.143 0 0 0 0 475.246v73.143a73.143 73.143 0 0 0 73.143 73.142h51.748a403.2 403.2 0 0 0 36.572 86.309l-36.572 36.571a73.143 73.143 0 0 0 0 103.315l51.749 51.748a73.143 73.143 0 0 0 103.314 0l36.572-36.571a393.691 393.691 0 0 0 85.76 36.023v51.931A73.143 73.143 0 0 0 475.429 1024h73.142a73.143 73.143 0 0 0 73.143-73.143v-51.931a393.691 393.691 0 0 0 86.309-35.657l36.571 36.571a73.143 73.143 0 0 0 103.315 0l51.748-51.749a73.143 73.143 0 0 0 0-103.314l-36.571-36.571a403.2 403.2 0 0 0 36.571-86.309h51.2A73.143 73.143 0 0 0 1024 548.754V475.43a73.143 73.143 0 0 0-73.143-73.143zM617.143 613.669a146.286 146.286 0 1 1-3.474-206.812 146.286 146.286 0 0 1 3.474 206.812z"/></svg>
