<svg class="icon" viewBox="0 0 1024 1024" xmlns="http://www.w3.org/2000/svg" width="200" height="200"><defs><style/></defs><path d="M666.88 320a35.84 35.84 0 0 0-35.84 35.84v311.893a35.84 35.84 0 1 0 72.107 0V355.84A35.84 35.84 0 0 0 666.88 320zm-310.187 0a35.84 35.84 0 0 0-35.84 35.84v311.893a35.84 35.84 0 1 0 72.107 0V355.84A35.84 35.84 0 0 0 357.12 320zM823.04 823.04a439.893 439.893 0 1 1-481.707-716.373A439.893 439.893 0 0 1 823.04 823.04zM512 0a512 512 0 1 0 512 512A512 512 0 0 0 512 0z"/></svg>