<svg class="icon" viewBox="0 0 1024 1024" xmlns="http://www.w3.org/2000/svg" width="200" height="200"><defs><style/></defs><path d="M475.913 694.718V797.01a36.046 36.046 0 0 0 72.579 0V694.718a66.246 66.246 0 0 0 30.687-56.016 67.22 67.22 0 1 0-133.953 0 67.707 67.707 0 0 0 30.687 56.016zM821.27 944.602H203.623v-425.24h617.646zM203.136 441.425v-34.097a344.869 344.869 0 0 1 24.842-129.083 331.717 331.717 0 0 1 67.22-104.727 308.336 308.336 0 0 1 97.42-69.655 283.494 283.494 0 0 1 119.34-25.817 292.262 292.262 0 0 1 118.367 25.33 314.669 314.669 0 0 1 97.42 70.142 525.584 525.584 0 0 1 60.401 94.985 40.917 40.917 0 0 0 36.046 21.92h15.587a29.226 29.226 0 0 0 27.278-39.942 410.14 410.14 0 0 0-82.808-129.57 384.811 384.811 0 0 0-123.237-88.653 367.276 367.276 0 0 0-301.03 0 383.837 383.837 0 0 0-122.75 87.679 409.166 409.166 0 0 0-81.345 129.57 420.37 420.37 0 0 0-30.688 158.308v535.813a77.45 77.45 0 0 0 75.501 79.398h622.518a77.45 77.45 0 0 0 75.5-79.398V514.49a73.065 73.065 0 0 0-73.065-73.065H203.136z"/></svg>