<svg class="icon" viewBox="0 0 1024 1024" xmlns="http://www.w3.org/2000/svg" width="200" height="200"><defs><style/></defs><path d="M414.485 463.232h-97.514v-195.05h-48.768v487.615h48.768V512h97.514v243.819h48.768V268.18h-48.768v195.051zM614.4 268.182L487.616 755.796h48.768l48.768-195.05h97.515l48.768 195.05h48.768L653.419 268.181H614.4zM590.016 512l43.883-160.917L677.78 512h-87.765zm214.55-341.333H219.434c-24.384 0-48.768 19.498-48.768 48.768v585.152c0 24.362 24.384 48.746 48.768 48.746h585.152c24.362 0 48.746-19.498 48.746-48.768v-585.13c0-29.27-24.384-48.768-48.768-48.768zm0 609.514c0 14.635-9.75 24.384-24.385 24.384H243.82c-14.635 0-24.384-9.749-24.384-24.384V243.82c0-14.635 9.749-24.384 24.384-24.384h536.384c14.634 0 24.384 9.749 24.384 24.384V780.18z"/></svg>
