<svg class="icon" viewBox="0 0 1024 1024" xmlns="http://www.w3.org/2000/svg" width="200" height="200"><defs><style/></defs><path d="M875.3 400.8c1.1-9.9 1.7-20 1.7-30.3C877 218.9 754 96 602.4 96c-105.9 0-197.9 60-243.7 147.9-17-4.6-34.9-7.1-53.4-7.1-110.7 0-200.8 87.7-204.7 197.4C40 476.6.3 546.9.3 626.5c0 129.5 105 234.4 234.4 234.4 7.3 0 14.5-.4 21.7-1h526.3v-.1h.3c131.8 0 238.7-106.9 238.7-238.7.1-99.2-60.4-184.2-146.4-220.3zM521 779.8c-132.1 0-239.3-99.4-242-231-.1-1.5-.2-3-.2-4.4 0-32.8 26.6-59.3 59.3-59.3 29.6 0 54.2 21.7 58.6 50.1.3.8.5 1.6.6 2.4C409 654.1 475.5 719.2 571 719.2c76.1 0 189.4-61.5 192.2-175.9-3 131.1-110.3 236.5-242.2 236.5zm182.9-190.7c-29.6 0-54.2-21.7-58.6-50.1-.3-.8-.5-1.6-.6-2.4C633.1 420.1 566.6 355 471.1 355c-76.1 0-189.4 61.5-192.2 175.9 3-131.1 110.3-236.5 242.2-236.5 132.1 0 239.3 99.4 242 231 .1 1.5.2 3 .2 4.4-.1 32.8-26.6 59.3-59.4 59.3z"/></svg>