<svg class="icon" viewBox="0 0 1024 1024" xmlns="http://www.w3.org/2000/svg" width="200" height="200"><defs><style/></defs><path d="M517.6 886.4c-11.2 0-22.4-4-32-11.2l-4.8-4C396 800.8 196 635.2 113.6 564.8c-16-13.6-24.8-32.8-24.8-52.8 0-19.2 8-37.6 23.2-51.2 88-75.2 326.4-273.6 374.4-312.8 12.8-11.2 32.8-13.6 48.8-7.2 16.8 7.2 27.2 22.4 27.2 41.6v171.2C644 368 903.2 440.8 936 776v2.4c0 16-9.6 28.8-24 32-14.4 4-29.6-2.4-36.8-13.6-84.8-125.6-245.6-130.4-312.8-126.4V844c0 16-8.8 29.6-24 37.6-6.4 3.2-13.6 4.8-20.8 4.8zm-4-49.6c.8 0 .8.8 0 0l.8-181.6c0-16.8 12.8-30.4 28.8-31.2 55.2-5.6 225.6-11.2 337.6 104-52-267.2-270.4-318.4-339.2-328H540c-15.2-3.2-25.6-15.2-25.6-30.4V187.2c-52.8 43.2-284.8 236.8-372 310.4-4.8 4.8-6.4 10.4-6.4 14.4 0 6.4 3.2 12 8 16 82.4 69.6 281.6 235.2 366.4 305.6l3.2 3.2zm.8-653.6z"/></svg>