<svg class="icon" viewBox="0 0 1170 1024" xmlns="http://www.w3.org/2000/svg" width="228.516" height="200"><defs><style/></defs><path d="M905.772 527.243c-12.815 0-25.659 1.61-38.473 3.218 1.609-8.045 1.609-16.091 1.609-24.166 0-91.897-65.74-166.093-145.905-166.093-46.49 0-88.152 25.805-115.42 64.512-48.099-67.73-121.827-112.874-203.6-112.874-141.078 0-256.498 127.386-259.687 287.013C62.523 604.657 0 690.117 0 791.698c0 119.31 84.963 216.035 190.757 216.035H907.38c117.029 0 211.617-108.017 211.617-240.23 0-132.243-96.198-240.26-213.226-240.26zm76.946-119.31l60.914-6.437c-1.61-70.949-28.848-140.288-81.745-193.507a275.836 275.836 0 0 0-197.193-82.213l-6.437 61.265c57.725-1.61 115.45 20.948 160.33 64.483a220.277 220.277 0 0 1 64.131 156.408zm125.045-17.73l62.523-8.105a398.19 398.19 0 0 0-118.638-264.426C977.92 43.535 883.332 4.827 785.554 0l-8.016 62.903c83.383 3.218 165.127 37.069 229.259 99.942a336.486 336.486 0 0 1 100.995 227.328z"/></svg>