<?xml version="1.0" standalone="no"?><!DOCTYPE svg PUBLIC "-//W3C//DTD SVG 1.1//EN" "http://www.w3.org/Graphics/SVG/1.1/DTD/svg11.dtd"><svg t="1608194083686" class="icon" viewBox="0 0 1024 1024" version="1.1" xmlns="http://www.w3.org/2000/svg" p-id="27418" xmlns:xlink="http://www.w3.org/1999/xlink" width="200" height="200"><defs><style type="text/css"></style></defs><path d="M934.409839 933.251872h-60.696432v-129.010635c0-127.843395-80.519018-237.686736-197.30436-292.096458 116.723907-55.003582 197.304359-164.253063 197.30436-292.096459V91.590588h60.61452a46.832908 46.832908 0 0 0 48.532572-45.624713A48.245882 48.245882 0 0 0 934.573662 0.013515H89.164926A47.099121 47.099121 0 0 0 40.939522 45.945397a46.587174 46.587174 0 0 0 47.918236 45.624713h60.61452l0.143345 128.293909c0 127.843395 80.519018 237.686736 197.30436 292.096459-116.723907 55.003582-197.161014 164.396409-197.161015 292.239804v129.010634h-60.61452a46.853386 46.853386 0 0 0-48.225404 45.624713 45.911404 45.911404 0 0 0 48.225404 45.051333h844.773922a46.116182 46.116182 0 0 0 48.983085-45.051333 47.324377 47.324377 0 0 0-48.491616-45.583757z m-128.416776 0H217.60218v-115.454279a268.895022 268.895022 0 0 1 159.502195-237.092877A71.488274 71.488274 0 0 0 423.20008 511.960478a79.658947 79.658947 0 0 0-46.075227-68.744238 267.66635 267.66635 0 0 1-159.502195-237.092878V91.877278h588.51375v114.839943a268.895022 268.895022 0 0 1-159.502196 237.092877 71.488274 71.488274 0 0 0-46.075226 68.744238 79.638469 79.638469 0 0 0 46.075226 68.744238 267.66635 267.66635 0 0 1 159.502196 237.113355v114.839943z" p-id="27419"></path><path d="M614.094863 636.322634a258.778951 258.778951 0 0 1-93.542949-59.07868l-8.764532-8.907877-9.522213 8.314019a296.478725 296.478725 0 0 1-92.785268 55.290272c-78.716965 42.614465-129.502104 111.072013-129.502103 196.280465v42.614465h463.557735v-42.614465c0-85.208452-50.723705-153.809345-129.44067-191.898199z m-102.389392-197.345315l13.904479-12.696285a492.390588 492.390588 0 0 1 92.785268-71.774964 200.335085 200.335085 0 0 0 78.716965-71.672575H326.38067a315.727931 315.727931 0 0 0 78.716965 71.672575 497.305279 497.305279 0 0 1 92.703356 71.734008z" p-id="27420"></path></svg>