<?xml version="1.0" standalone="no"?>
<!DOCTYPE svg PUBLIC "-//W3C//DTD SVG 20010904//EN"
 "http://www.w3.org/TR/2001/REC-SVG-20010904/DTD/svg10.dtd">
<svg version="1.0" xmlns="http://www.w3.org/2000/svg"
 width="176.000000pt" height="176.000000pt" viewBox="0 0 176.000000 176.000000"
 preserveAspectRatio="xMidYMid meet">

<g transform="translate(0.000000,176.000000) scale(0.100000,-0.100000)"
fill="#FFBA00" stroke="none">
<path d="M702 1735 c-325 -73 -581 -318 -664 -635 -19 -70 -22 -110 -22 -225
1 -122 4 -151 27 -228 91 -299 304 -513 602 -603 79 -24 108 -27 230 -28 116
0 155 3 225 22 323 87 568 345 635 670 36 171 9 393 -63 537 -28 57 -37 65
-74 65 -19 0 -33 -8 -44 -25 -16 -24 -15 -29 15 -105 51 -130 64 -200 58 -325
-3 -60 -12 -137 -21 -170 -22 -79 -87 -211 -125 -255 l-31 -35 -527 529 -527
529 35 29 c44 38 178 103 254 124 148 40 330 27 484 -34 82 -32 117 -31 133 4
27 58 -25 99 -185 145 -95 28 -322 35 -415 14z m628 -1455 c-48 -40 -181 -105
-260 -126 -100 -27 -292 -25 -390 5 -256 78 -441 263 -521 521 -30 97 -32 289
-5 390 21 76 74 186 121 251 l34 45 528 -528 528 -529 -35 -29z"/>
<path d="M1406 1488 c-21 -30 -20 -54 4 -78 39 -39 100 -14 100 42 0 53 -74
79 -104 36z"/>
</g>
</svg>
