<svg class="icon" viewBox="0 0 1024 1024" xmlns="http://www.w3.org/2000/svg" width="200" height="200"><defs><style/></defs><path d="M507.437 1014.85c280.264 0 507.436-227.194 507.436-507.436 0-280.264-227.194-507.436-507.436-507.436C227.172-.022 0 227.172 0 507.414c0 280.265 227.194 507.437 507.437 507.437zm0-44.521c-255.667 0-462.915-207.249-462.915-462.915C44.522 251.748 251.77 44.5 507.437 44.5c255.666 0 462.914 207.25 462.914 462.915 0 255.666-207.248 462.915-462.914 462.915z"/><path d="M420.486 319.755c0-19.901-24.109-29.807-38.089-15.65l-182.316 184.41a22.26 22.26 0 0 0-.112 31.165l185.21 190.108c13.958 14.314 38.223 4.452 38.223-15.516v-111.46a22.26 22.26 0 0 0-44.522 0v56.72L247.096 504.276l128.868-130.337v52.825a22.26 22.26 0 0 0 22.26 22.261H549.6a22.26 22.26 0 0 0 0-44.522H420.486v-84.747z"/><path d="M497.508 482.86a45.279 45.279 0 0 0-45.19 45.123v105.16a45.279 45.279 0 0 0 45.123 45.19h110.637a15616.957 15616.957 0 0 0 1.558 90.958c.4 19.456 23.82 29.073 37.8 15.494l190.419-185.389a22.26 22.26 0 0 0 .222-31.677l-190.42-191.065c-14.024-14.069-38.02-4.14-38.02 15.716v90.49H497.507zM653.223 717a16943.816 16943.816 0 0 1-.913-61.217 22.26 22.26 0 0 0-22.26-21.972H497.507c-.334 0-.668-.333-.668-.734V528.05c0-.334.334-.668.735-.668h132.697a22.26 22.26 0 0 0 22.216-21.036c.134-2.16.245-3.918.379-5.187a22.216 22.216 0 0 0 1.29-7.502v-47.416l136.482 136.95L653.223 717zm-.2-217.333a9.906 9.906 0 0 1-.334 1.247c-.446 1.514-.446 1.514-2.338 5.009-3.829 5.743-3.829 5.743-18.454 9.995a22.26 22.26 0 0 0 20.97-14.759 36.063 36.063 0 0 1 .156-1.492z"/></svg>
