<svg class="icon" viewBox="0 0 1024 1024" xmlns="http://www.w3.org/2000/svg" width="200" height="200"><defs><style/></defs><path d="M720 643.558H576v46.208h96c13.26 0 24.013 10.343 24.013 23.117S685.26 736 672 736H384c-13.26 0-24.013-10.342-24.013-23.117S370.74 689.766 384 689.766h96v-46.182H336c-26.522 0-48-20.71-48-46.234V366.26c0-25.55 21.504-46.234 48-46.234h384c26.522 0 48 20.684 48 46.233V597.35c0 25.524-21.504 46.234-48 46.234zm-96-231.116H480l46.413 44.697c-25.216 42.957-91.52 75.264-142.413 87.808 23.782 3.968 47.872 6.016 71.987 6.067a193.997 193.997 0 0 0 122.675-43.648L624 551.116v-138.7z"/><path d="M512 0C229.197 0 0 229.248 0 512.026 0 794.752 229.197 1024 512 1024c282.752 0 512-229.248 512-511.974C1024 229.248 794.752 0 512 0zm0 971.494c-253.773 0-459.494-205.747-459.494-459.468 0-253.824 205.721-459.52 459.494-459.52 253.773 0 459.494 205.747 459.494 459.52 0 253.721-205.721 459.468-459.494 459.468z"/></svg>