<svg class="icon" viewBox="0 0 1024 1024" xmlns="http://www.w3.org/2000/svg" width="200" height="200"><defs><style/></defs><path d="M367.616 285.184v451.072l391.168-225.792z"/><path d="M962.56 275.968C878.08 109.568 705.536 0 512.512 0 288.768 0 89.6 150.016 28.16 364.544l69.12 19.968C150.016 200.192 321.024 71.68 512.512 71.68c166.4 0 315.904 95.744 387.584 240.128l-74.752 43.008 197.12 113.664V241.664l-59.904 34.304zM510.976 952.832c-166.4 0-315.904-95.744-387.584-240.128l74.752-43.008L1.024 555.52v227.328l59.904-34.816C145.408 914.432 317.952 1024 510.464 1024c223.744 0 422.912-150.016 484.352-364.544L926.72 640c-53.248 183.808-223.744 312.832-415.744 312.832z"/></svg>